<svg width="24" height="24" viewBox="0 0 24 24" fill="none" xmlns="http://www.w3.org/2000/svg">
<path d="M24 12C24 14.3734 23.2962 16.6935 21.9776 18.6668C20.6591 20.6402 18.7849 22.1783 16.5922 23.0866C14.3995 23.9948 11.9867 24.2324 9.65892 23.7694C7.33114 23.3064 5.19295 22.1635 3.51472 20.4853C1.83649 18.8071 0.693599 16.6689 0.230577 14.3411C-0.232446 12.0133 0.00519403 9.60051 0.913446 7.4078C1.8217 5.21509 3.35977 3.34094 5.33316 2.02236C7.30655 0.703788 9.62662 -2.83022e-08 12 0L12 12H24Z" fill="#57423C"/>
<path d="M12.5 2.19049C10.4374 2.19049 8.63116 2.23753 7.00001 3.5C5.36885 4.76247 4.00515 7.16887 3.48793 9.16561C2.97072 11.1623 2.67482 13.6044 3.48793 15.5C4.30104 17.3956 6.19675 19.4986 8 20.5C9.80325 21.5014 11.9611 21.3118 14 21C16.0389 20.6882 18.5784 19.4945 20 18C21.4216 16.5055 21.7906 14.552 22 12.5C22.2094 10.448 21.4929 8.32985 20.4026 6.57895L12.5 11.5V2.19049Z" fill="#FFA600" stroke="#FFD678" stroke-width="2" stroke-linecap="round" stroke-linejoin="round"/>
<circle cx="7.50006" cy="7.5" r="3.5" fill="#E34C3E"/>
<circle cx="9.00006" cy="6" r="1" fill="#D44436"/>
<path d="M10.8176 8.95929C10.5871 8.89142 10.3887 8.74278 10.2587 8.54059C10.1288 8.3384 10.0761 8.09617 10.1101 7.85826C10.1442 7.62035 10.2628 7.40267 10.4442 7.24505C10.6257 7.08744 10.8578 7.00045 11.0982 7L11.1 8L10.8176 8.95929Z" fill="#D44436"/>
<path d="M5.38033 10.4071C5.53485 10.121 5.77811 9.89294 6.07348 9.75714C6.36885 9.62134 6.70034 9.58517 7.01805 9.65409C7.33575 9.723 7.62247 9.89326 7.83503 10.1392C8.04759 10.3852 8.17448 10.6936 8.1966 11.0179L6.70007 11.12L5.38033 10.4071Z" fill="#D44436"/>
<path d="M6.9159 4.00462C7.02752 4.32363 7.02813 4.67098 6.91764 4.99038C6.80715 5.30978 6.59203 5.58251 6.30715 5.76436C6.02227 5.94621 5.68433 6.02652 5.3481 5.99228C5.01187 5.95804 4.69705 5.81126 4.45468 5.57572L5.50006 4.5L6.9159 4.00462Z" fill="#D44436"/>
<circle cx="6.20007" cy="7.79999" r="1.5" fill="#D44436"/>
<path d="M19.2857 12.6428C19.2857 13.5501 18.5502 14.2857 17.6429 14.2857C16.7356 14.2857 16 13.5501 16 12.6428C16 11.7355 16.7356 11 17.6429 11C18.5502 11 19.2857 11.7355 19.2857 12.6428Z" fill="#FF6F00"/>
<path d="M10 13.9999C10 15.1045 9.1046 15.9999 8.00003 15.9999C6.89546 15.9999 6.00003 15.1045 6.00003 13.9999C6.00003 12.8954 6.89546 11.9999 8.00003 11.9999C9.1046 11.9999 10 12.8954 10 13.9999Z" fill="#FF6F00"/>
<path d="M15.5 16.2499C15.5 17.4926 14.4927 18.4999 13.25 18.4999C12.0074 18.4999 11 17.4926 11 16.2499C11 15.0073 12.0074 13.9999 13.25 13.9999C14.4927 13.9999 15.5 15.0073 15.5 16.2499Z" fill="#E34C3E"/>
</svg>
